<svg version="1.1" id="Layer_1" xmlns="http://www.w3.org/2000/svg" xmlns:xlink="http://www.w3.org/1999/xlink" x="0px" y="0px"
	 width="100%" viewBox="0 0 500 156" enable-background="new 0 0 500 156" xml:space="preserve">
<path fill="#FEFEFF" opacity="1.000000" stroke="none" 
	d="
M413.000000,157.000000 
	C276.833374,157.000000 141.166748,156.981995 5.500223,157.094131 
	C1.751073,157.097229 0.891916,156.251312 0.902999,152.499863 
	C1.048745,103.166977 1.033703,53.833439 0.916857,4.500399 
	C0.909793,1.518013 1.517473,0.917334 4.499841,0.918990 
	C168.833069,1.010268 333.166351,1.010246 497.499603,0.919122 
	C500.480286,0.917470 501.090302,1.515801 501.083282,4.499813 
	C500.966461,54.166183 500.966583,103.832985 501.083099,153.499359 
	C501.090088,156.481094 500.485901,157.100632 497.500000,157.085312 
	C469.500580,156.941528 441.500153,157.000000 413.000000,157.000000 
z"/>
<path fill="#8E56FF" opacity="1.000000" stroke="none" 
	d="
M136.111176,108.954567 
	C118.193680,107.572235 105.862946,95.015739 105.564621,78.300354 
	C105.286591,62.722092 117.180893,49.206329 132.984879,47.142105 
	C149.541092,44.979626 164.551407,54.951084 168.371811,71.036133 
	C170.511993,80.046898 169.006058,88.702583 163.161179,96.032013 
	C160.680374,99.142921 160.319275,101.341537 163.338531,103.917908 
	C166.647308,106.741348 165.111343,107.977280 161.811325,108.835434 
	C158.290726,109.750946 154.708038,112.320511 151.960541,107.337784 
	C151.048706,105.684128 149.181793,106.834976 147.840363,107.242699 
	C144.153351,108.363396 140.436661,109.137871 136.111176,108.954567 
z"/>
<path fill="#8F56FF" opacity="1.000000" stroke="none" 
	d="
M337.399048,119.217438 
	C338.649933,114.488525 340.827271,112.910545 345.347168,115.149902 
	C348.312408,116.619011 351.747437,117.013382 355.099915,116.838531 
	C362.438995,116.455742 365.298767,112.993614 364.653015,105.095413 
	C360.614075,106.508530 356.806274,108.378174 352.371124,108.194290 
	C342.712494,107.793823 335.942596,103.217453 331.983368,94.592491 
	C328.117950,86.171944 329.893677,76.098938 336.384369,69.567451 
	C343.100098,62.809559 351.227997,61.116924 360.280853,63.847660 
	C362.397736,64.486198 363.845276,65.671478 366.429443,63.538921 
	C368.223267,62.058571 372.190948,63.104572 375.179840,63.219135 
	C377.085693,63.292187 376.891113,64.930649 376.891327,66.235336 
	C376.893799,80.565170 377.080780,94.899117 376.789734,109.223259 
	C376.619537,117.600266 371.790222,123.268250 363.646606,125.362862 
	C355.171600,127.542725 346.839447,126.532433 338.644012,123.644440 
	C336.200592,122.783401 336.096130,121.468414 337.399048,119.217438 
z"/>
<path fill="#8D54FF" opacity="1.000000" stroke="none" 
	d="
M48.934631,40.388748 
	C53.222553,35.113186 53.244328,35.091610 57.525875,39.412754 
	C70.156670,52.160347 82.774094,64.921188 95.384651,77.688797 
	C99.341995,81.695419 99.326622,83.054398 95.289803,87.122467 
	C91.311623,91.131439 87.297951,95.105194 83.000137,99.199265 
	C80.076805,99.962234 78.855659,97.875107 77.309555,96.497292 
	C73.375984,92.991859 70.257996,88.594078 65.362732,85.612854 
	C65.539612,81.704910 63.428917,79.344894 60.954796,77.067619 
	C58.167454,74.502052 55.682278,71.609993 52.351349,69.086380 
	C44.761967,60.195385 43.501934,50.862751 48.934631,40.388748 
z"/>
<path fill="#8D53FF" opacity="1.000000" stroke="none" 
	d="
M58.226273,123.946426 
	C53.785835,129.493591 53.771069,129.508301 49.134041,124.854057 
	C36.563175,112.236511 24.067215,99.543411 11.401914,87.021500 
	C8.093776,83.750824 7.799156,81.111786 11.283250,77.821556 
	C15.513288,73.826897 19.454441,69.526337 23.816782,65.204147 
	C25.442207,64.557045 26.391964,65.343208 27.186937,66.149117 
	C31.715227,70.739685 36.724438,74.870850 40.733093,80.420364 
	C43.318211,87.163055 49.134098,90.329948 54.289055,94.638626 
	C56.186802,97.413445 57.799595,99.949287 59.390648,102.964279 
	C62.351856,110.253479 62.275093,117.016457 58.226273,123.946426 
z"/>
<path fill="#8E55FF" opacity="1.000000" stroke="none" 
	d="
M326.840149,103.150101 
	C328.193237,104.639885 329.304993,105.867264 330.918915,107.648994 
	C323.089203,108.090622 315.914398,109.863098 310.579163,102.131439 
	C307.307831,97.390739 302.812958,93.494347 297.600647,89.339745 
	C297.600647,93.997032 297.379639,98.668213 297.671051,103.307190 
	C297.901428,106.974709 296.854492,108.280479 292.984222,108.093231 
	C284.534363,107.684410 285.825714,108.963005 285.789520,100.932373 
	C285.716644,84.767548 285.760620,68.602158 285.773376,52.437012 
	C285.776398,48.603466 293.143005,44.166553 296.510345,45.994949 
	C298.201904,46.913429 297.562439,48.657639 297.571869,50.058918 
	C297.629181,58.557739 297.600677,67.057137 297.600830,75.556343 
	C297.600861,77.168289 297.600830,78.780235 297.600830,81.919930 
	C302.565582,77.040253 306.997467,73.505630 310.386719,69.158195 
	C315.310669,62.842228 321.448822,62.171230 329.619049,63.740242 
	C324.740692,68.537865 320.324615,72.881439 315.907776,77.224228 
	C314.600647,78.509460 313.390686,79.918205 311.960632,81.048164 
	C309.589630,82.921600 309.568665,84.421021 311.750061,86.668457 
	C316.853119,91.925934 321.667572,97.463524 326.840149,103.150101 
z"/>
<path fill="#8E55FF" opacity="1.000000" stroke="none" 
	d="
M210.127289,108.006027 
	C207.848068,107.639473 205.679428,108.922707 204.243881,106.636307 
	C203.112091,104.833702 201.887711,106.463654 200.823776,106.893036 
	C186.052139,112.854576 174.205124,104.915520 174.151382,88.964264 
	C174.127274,81.806038 174.332550,74.640755 174.067612,67.492241 
	C173.934464,63.899796 175.196182,62.653267 178.617554,63.102356 
	C179.763153,63.252728 180.960327,63.247528 182.107407,63.102924 
	C185.138077,62.720852 186.184540,63.891895 186.101349,66.993950 
	C185.905090,74.313400 185.901932,81.645325 186.084808,88.965607 
	C186.274002,96.539513 191.876816,100.355515 199.097580,98.075569 
	C202.652206,96.953209 204.572006,94.847549 204.460510,90.783524 
	C204.246048,82.965225 204.613693,75.129051 204.330078,67.315170 
	C204.113403,61.345791 208.302017,63.493000 211.167389,63.141094 
	C214.330963,62.752563 216.443680,63.104160 216.333725,67.417839 
	C216.036896,79.063332 216.009872,90.727745 216.343262,102.371277 
	C216.474854,106.966339 215.142105,108.813957 210.127289,108.006027 
z"/>
<path fill="#8F56FF" opacity="1.000000" stroke="none" 
	d="
M411.115051,98.185272 
	C415.793579,99.935181 420.150604,100.688820 424.607147,98.898300 
	C426.419281,98.170235 427.887787,96.995071 427.720093,94.869911 
	C427.570709,92.977051 426.056976,91.976143 424.375397,91.600700 
	C421.464172,90.950729 418.515381,90.420387 415.556183,90.048035 
	C412.721100,89.691292 409.972260,89.055191 407.394531,87.878593 
	C398.855591,83.980957 397.475555,72.824081 404.730377,66.843941 
	C412.513672,60.428154 427.312561,61.945995 435.428528,67.054901 
	C437.125946,68.123398 436.711700,69.348953 435.617706,70.238075 
	C433.602997,71.875557 433.457275,76.617012 429.059784,74.439484 
	C425.261902,72.558868 421.309235,71.428474 417.042206,71.689110 
	C414.329529,71.854797 411.307526,72.039093 410.978729,75.520462 
	C410.620239,79.315750 413.977936,79.397385 416.474213,79.916969 
	C420.698029,80.796112 425.057678,81.118195 429.204926,82.245728 
	C434.344360,83.643013 438.151276,86.848709 438.856354,92.489174 
	C439.573181,98.223289 436.883972,102.436790 432.178375,105.471657 
	C424.218262,110.605530 407.868317,109.822533 400.764252,104.100571 
	C399.498230,103.080849 399.232819,102.397408 400.081879,100.876564 
	C403.386353,94.957756 403.973450,94.742767 411.115051,98.185272 
z"/>
<path fill="#9058FF" opacity="1.000000" stroke="none" 
	d="
M460.270508,61.626900 
	C463.171661,64.245224 466.447113,63.092480 469.441833,63.003086 
	C474.040375,62.865822 472.901276,65.889671 472.985748,68.337395 
	C473.070374,70.789757 473.614197,73.145256 469.508606,73.192764 
	C460.158630,73.300980 460.160217,73.532051 460.161987,83.125053 
	C460.162537,86.117355 460.058105,89.115036 460.200287,92.100800 
	C460.459991,97.554604 462.313110,98.929665 467.860413,98.578354 
	C469.563477,98.470497 472.704193,96.333717 472.710327,100.229225 
	C472.714996,103.182350 474.967560,107.747856 469.006470,108.151443 
	C466.861450,108.296677 464.717529,108.834427 462.587616,108.762634 
	C453.126709,108.443764 448.563843,103.893417 448.311554,94.490295 
	C448.160034,88.842087 448.096802,83.178688 448.343384,77.537384 
	C448.494202,74.087120 447.405426,72.488106 443.890472,73.101257 
	C439.680939,73.835571 439.078491,71.713608 439.005920,68.049622 
	C438.928406,64.134895 440.039978,62.468548 444.023010,63.104729 
	C447.156677,63.605244 448.395752,62.437981 448.359650,59.044712 
	C448.284637,51.998081 451.323212,49.425716 458.333435,49.537415 
	C460.209900,49.567314 460.117828,50.558910 460.136963,51.696377 
	C460.190094,54.854137 460.180603,58.012947 460.270508,61.626900 
z"/>
<path fill="#8F57FF" opacity="1.000000" stroke="none" 
	d="
M270.603882,107.874794 
	C255.840225,111.422958 242.970673,103.615173 240.309937,89.832817 
	C237.777985,76.717712 246.934280,64.374702 260.921600,62.502579 
	C267.814575,61.579994 274.049042,63.755680 279.560303,68.012741 
	C281.570740,69.565643 281.687195,70.863876 279.859436,72.828575 
	C276.985931,75.917343 275.006195,78.664299 270.171570,74.663246 
	C265.481384,70.781738 258.585846,72.475723 254.925415,76.930161 
	C250.827698,81.916702 250.862549,89.765862 255.003098,94.429962 
	C258.803284,98.710686 265.803558,99.591911 271.016571,96.554115 
	C272.385956,95.756119 273.609528,93.452248 275.130920,94.411591 
	C277.318207,95.790848 279.066986,97.962265 280.753937,100.001549 
	C281.750977,101.206818 280.449615,102.114822 279.627075,102.884521 
	C277.147797,105.204491 274.108276,106.559364 270.603882,107.874794 
z"/>
<path fill="#9058FF" opacity="1.000000" stroke="none" 
	d="
M225.325195,107.985580 
	C222.401337,107.380150 223.245392,105.351128 223.237381,103.874290 
	C223.171448,91.715797 223.336990,79.554321 223.117554,67.399437 
	C223.050751,63.699818 224.463776,62.953503 227.768936,63.057724 
	C236.370544,63.328960 235.022034,62.276997 235.079559,70.098831 
	C235.157944,80.758064 234.843033,91.427269 235.215866,102.074028 
	C235.382019,106.818619 234.215332,108.925537 229.275330,108.042847 
	C228.145081,107.840889 226.948746,108.008713 225.325195,107.985580 
z"/>
<path fill="#9058FF" opacity="1.000000" stroke="none" 
	d="
M383.929749,76.011230 
	C383.929749,73.515488 383.928925,71.517746 383.929932,69.520004 
	C383.933105,63.102039 383.947998,63.370529 390.321716,63.023727 
	C394.609955,62.790405 396.085724,63.876781 395.949341,68.455009 
	C395.597565,80.264503 395.723206,92.093056 395.900787,103.910355 
	C395.950684,107.231224 394.893311,108.191071 391.633575,108.076981 
	C382.249023,107.748550 384.081635,109.069214 383.954956,100.481750 
	C383.837067,92.492523 383.929779,84.500198 383.929749,76.011230 
z"/>
<path fill="#6622EE" opacity="1.000000" stroke="none" 
	d="
M48.734161,40.179375 
	C49.629517,40.431492 49.905205,41.032803 49.578850,41.693081 
	C44.846992,51.266499 46.515621,60.033722 52.920547,68.567955 
	C52.782658,69.091766 52.596653,69.272034 52.041519,69.574768 
	C44.775173,66.893700 40.635067,61.104198 36.372387,55.474228 
	C35.883877,54.829021 36.188702,53.863628 36.673260,52.721291 
	C40.646255,48.345402 44.547207,44.346996 48.734161,40.179375 
z"/>
<path fill="#8F57FF" opacity="1.000000" stroke="none" 
	d="
M383.678986,54.058136 
	C382.289490,50.252277 383.281372,47.445564 386.317017,45.563614 
	C388.981537,43.911743 391.747711,44.193275 394.117157,46.288055 
	C396.308441,48.225281 396.929657,50.716202 395.989746,53.505772 
	C394.386902,58.262867 386.946899,60.181183 383.678986,54.058136 
z"/>
<path fill="#9057FF" opacity="1.000000" stroke="none" 
	d="
M229.056747,44.535130 
	C235.224762,46.212326 237.611069,50.555431 234.895844,54.639030 
	C233.194397,57.197956 230.774414,58.575851 227.666611,57.773270 
	C224.399902,56.929657 222.541245,54.531666 222.581146,51.240398 
	C222.627380,47.426273 224.973557,45.239643 229.056747,44.535130 
z"/>
<path fill="#7A3BF7" opacity="1.000000" stroke="none" 
	d="
M28.776035,60.289394 
	C30.137936,58.744720 31.288797,57.519268 32.715424,56.134453 
	C38.489250,60.959431 43.342312,66.605606 49.109383,71.820511 
	C49.195148,74.500999 47.546505,75.637787 45.362938,76.756927 
	C43.641869,77.120964 42.295822,76.947083 41.266563,76.074837 
	C36.897961,72.372635 32.720963,68.464134 29.270750,63.860962 
	C28.577068,62.935471 28.249592,61.811932 28.776035,60.289394 
z"/>
<path fill="#864BFC" opacity="1.000000" stroke="none" 
	d="
M28.706749,60.132294 
	C32.273792,67.231117 37.689667,72.422371 45.054382,76.155792 
	C45.561501,79.353394 42.965942,80.123032 40.559135,81.402451 
	C35.713215,75.397713 29.905066,70.655037 24.402809,65.194321 
	C25.550797,63.464916 26.988609,61.879662 28.706749,60.132294 
z"/>
<path fill="#7332F4" opacity="1.000000" stroke="none" 
	d="
M76.738541,104.992447 
	C75.484291,106.874763 74.095596,108.400887 72.395752,110.071838 
	C66.628578,105.102463 61.687222,99.463882 55.893200,94.186279 
	C55.692986,92.088814 56.834595,91.149323 58.589397,90.268120 
	C61.325439,89.677490 63.063839,90.868202 64.601990,92.411736 
	C68.632782,96.456703 72.879333,100.290833 76.738541,104.992447 
z"/>
<path fill="#611AEC" opacity="1.000000" stroke="none" 
	d="
M58.370155,124.179688 
	C57.780487,120.651703 60.260872,117.547279 60.096680,113.802055 
	C59.944660,110.334602 59.823193,106.945511 58.237560,103.379601 
	C58.875465,102.232407 59.950245,101.945259 60.762329,102.512749 
	C64.427979,105.074348 68.405853,107.415436 69.212341,112.659683 
	C66.185677,117.253609 62.148262,120.372948 58.370155,124.179688 
z"/>
<path fill="#6926F0" opacity="1.000000" stroke="none" 
	d="
M69.313889,112.996506 
	C66.785660,108.458138 63.577858,104.942574 58.458420,103.020355 
	C56.797123,100.725708 55.489693,98.429123 54.114246,95.818695 
	C53.873123,94.575920 54.453266,94.167427 55.552719,93.916901 
	C62.581547,97.798508 67.373260,103.555092 72.034714,109.857361 
	C71.266045,111.145531 70.447479,112.074394 69.313889,112.996506 
z"/>
<path fill="#6D2BF2" opacity="1.000000" stroke="none" 
	d="
M49.761795,72.185257 
	C42.550732,68.531914 37.870480,62.539307 33.034126,56.320419 
	C34.047886,54.874668 35.104591,53.774235 36.453300,52.508808 
	C36.733543,54.824539 37.889473,56.689342 39.737423,58.251755 
	C43.834629,61.715878 46.748489,66.486549 52.023628,69.131409 
	C52.344040,70.749138 51.387714,71.586044 49.761795,72.185257 
z"/>
<path fill="#854AFC" opacity="1.000000" stroke="none" 
	d="
M64.511581,84.899712 
	C67.104622,84.705101 68.513428,85.997803 69.958809,87.422867 
	C73.917053,91.325455 77.960487,95.141640 82.335312,99.148087 
	C81.890198,100.241653 81.079971,101.179169 79.959923,102.179352 
	C77.076935,102.750519 75.769707,100.825607 74.204430,99.403603 
	C70.290848,95.848267 67.129822,91.467575 62.206402,88.463493 
	C61.412525,86.267982 62.592434,85.436005 64.511581,84.899712 
z"/>
<path fill="#7C3EF8" opacity="1.000000" stroke="none" 
	d="
M61.541931,87.887962 
	C64.104263,87.706223 65.510307,88.993378 66.951569,90.415314 
	C70.897713,94.308571 74.928688,98.115845 79.288086,102.099594 
	C78.900703,103.181847 78.151299,104.121674 77.137436,105.205078 
	C71.872696,102.507545 68.688911,97.686516 64.485260,93.976418 
	C63.021084,92.684166 61.913925,90.833565 59.201462,90.956558 
	C58.619675,89.138283 59.683781,88.309509 61.541931,87.887962 
z"/>
<path fill="#FDFCFF" opacity="1.000000" stroke="none" 
	d="
M154.634033,86.149658 
	C153.436615,88.992363 152.180954,90.939697 150.086151,87.357666 
	C148.371658,84.425934 146.202377,84.924850 143.697021,85.960068 
	C141.712189,86.780197 139.642303,87.394470 137.587402,88.108055 
	C137.836609,90.065117 139.350784,91.017189 140.148529,92.400360 
	C140.928482,93.752678 143.328735,94.682869 142.302231,96.411201 
	C141.473282,97.806885 139.242157,97.224518 137.631943,97.259293 
	C126.738235,97.494514 118.690025,89.446411 118.350174,78.063309 
	C118.033432,67.454414 126.764519,58.388985 137.359589,58.325974 
	C147.807358,58.263832 156.072891,66.681862 156.211563,77.519455 
	C156.248032,80.369781 156.073486,83.181229 154.634033,86.149658 
z"/>
<path fill="#FDFDFF" opacity="1.000000" stroke="none" 
	d="
M350.812988,97.740120 
	C342.433319,93.597542 339.572083,86.533295 343.124023,79.594498 
	C346.444122,73.108612 354.873230,70.756416 361.737946,74.416176 
	C362.469269,74.806053 363.520874,75.139786 363.788666,75.769638 
	C366.287781,81.648026 365.392151,87.932388 364.504761,93.793991 
	C364.003998,97.101997 359.293823,97.930145 355.686523,98.082977 
	C354.197449,98.146065 352.697144,97.944054 350.812988,97.740120 
z"/>
<path fill="#FBF9FF" opacity="1.000000" stroke="none" 
	d="
M62.017044,87.675903 
	C60.971973,88.769165 60.048553,89.577209 58.975605,90.657837 
	C57.933010,91.752686 57.039948,92.574951 56.035301,93.684807 
	C55.436516,94.331367 54.949318,94.690346 54.254173,95.277084 
	C48.398994,92.074257 43.829311,87.529587 40.169540,81.744118 
	C41.836536,79.885216 43.484051,78.346497 45.287872,76.510620 
	C46.669079,75.067802 47.893978,73.922134 49.274719,72.493492 
	C50.326172,71.392876 51.221786,70.575226 52.253613,69.481094 
	C52.389824,69.204597 52.727345,69.153069 52.848007,69.032280 
	C58.262020,71.770622 61.463467,76.912376 65.867683,80.743355 
	C67.643066,82.287659 66.050392,83.281555 65.026947,84.661682 
	C63.972614,85.769691 63.055653,86.580193 62.017044,87.675903 
z"/>
</svg>